<svg width="13" height="12" viewBox="0 0 13 12" fill="none" xmlns="http://www.w3.org/2000/svg">
<path d="M11.4079 5.8584H12.4337C12.7307 5.8584 12.9196 5.53445 12.7577 5.27798L11.0434 2.51088C10.8949 2.26791 10.544 2.26791 10.3955 2.51088L8.66776 5.26448C8.50578 5.52095 8.69475 5.8449 8.99171 5.8449H10.0176C10.0176 5.8584 10.0176 5.8719 10.0176 5.8719C9.97707 8.18007 8.06034 10.0833 5.75217 10.0968C3.25503 10.1238 1.24382 8.01809 1.4193 5.49395C1.55428 3.41525 3.21454 1.701 5.29324 1.49853C6.38658 1.39054 7.39894 1.6875 8.20882 2.26791C8.39779 2.4029 8.65426 2.3489 8.77574 2.14643L9.0862 1.62001C9.19418 1.44453 9.14019 1.21507 8.97821 1.09358C8.03335 0.472672 6.91301 0.0947266 5.71168 0.0947266C2.41815 0.0947266 -0.227467 2.88883 0.0154981 6.23634C0.217969 9.03044 2.47215 11.2846 5.26624 11.4871C8.60027 11.7436 11.3809 9.12493 11.4079 5.8584Z" fill="#2E8FC2"/>
</svg>
