<svg width="10" height="12" viewBox="-0.25 -0.5 10 12" xmlns="http://www.w3.org/2000/svg">
    <g fill-rule="evenodd">
        <path d="M7.209 6.806c0-.733-.004-1.465.002-2.198.002-.267-.011-.54-.353-.536-.31.003-.333.264-.333.513.002 1.448.002 2.896 0 4.345 0 .25.02.506.332.51.343.002.356-.27.354-.537-.006-.699-.002-1.398-.002-2.097m-4.8-.082c0 .75.004 1.498-.002 2.247-.002.24.045.454.323.466.317.014.363-.219.363-.476-.002-1.465-.002-2.93 0-4.395 0-.252-.038-.5-.35-.494-.306.006-.338.25-.336.504.006.716.002 1.432.002 2.148m2.05.034v2.241c0 .242.06.436.352.434.294-.001.348-.199.348-.439l-.001-4.433c0-.244-.02-.489-.351-.487-.332.002-.346.25-.347.492-.002.73 0 1.461 0 2.192m.36-4.053c1.184 0 2.366.016 3.548-.008.447-.01.57.154.566.582-.018 2.082-.005 4.165-.01 6.247-.001.9-.378 1.276-1.278 1.278-1.899.004-3.798.004-5.697 0-.868-.002-1.253-.385-1.255-1.25-.005-2.1.01-4.198-.011-6.297-.005-.46.173-.566.589-.56 1.182.02 2.365.007 3.548.007M4.808 2.022c-1.399 0-2.799-.006-4.198.004-.35.002-.62-.006-.61-.484.014-.64.122-.838.635-.85a42.34 42.34 0 011.899 0c.252.005.445-.016.547-.3.11-.302.36-.398.679-.392.7.015 1.4.015 2.099 0 .32-.006.57.091.678.394.102.283.296.303.548.298C7.7.679 8.317.688 8.935.688c.24 0 .486.022.597.27.134.298.128.623.014.922-.083.218-.316.138-.49.139-1.415.005-2.831.003-4.248.003"/>
    </g>
</svg>