<svg version="1.2" xmlns="http://www.w3.org/2000/svg" viewBox="0 0 175 175" width="175" height="175">
	<title>Ellipse 1-svg</title>
	<defs>
		<clipPath clipPathUnits="userSpaceOnUse" id="cp1">
			<path d="m-632-160h1440v900h-1440z"/>
		</clipPath>
	</defs>
	<style>
		.s0 { fill: #0a699b } 
		.s1 { fill: #ffffff } 
		.s2 { fill: none;stroke: #64a70b;stroke-width: 5 } 
	</style>
	<g id="Clip-Path" clip-path="url(#cp1)">
		<g id="Layer">
			<circle id="Layer" class="s0" cx="87.5" cy="87.5" r="87.5"/>
			<path id="Layer" fill-rule="evenodd" class="s1" d="m75.6 43h45v87.6h-66.2v-66.7h21.2zm18.8 42.9c-0.9 0-1.8 0.4-2.5 1c-0.7 0.7-1 1.6-1.1 2.5c0 0.7 0.2 1.4 0.6 2c0.4 0.6 1 1.1 1.6 1.3c0.7 0.3 1.4 0.4 2.1 0.2c0.7-0.1 1.3-0.4 1.8-0.9c0.5-0.5 0.9-1.2 1-1.9c0.1-0.7 0.1-1.4-0.2-2c-0.3-0.7-0.7-1.2-1.3-1.6c-0.6-0.4-1.3-0.6-2-0.6zm7.3 26.6c-1.6-2.6-3.8-4.8-6.5-6.3c-2.7-1.5-5.7-2.2-8.7-2.2c-3.1 0-6.1 0.7-8.8 2.2c-2.6 1.5-4.9 3.7-6.5 6.3l3 1.9c1.3-2.1 3.1-3.9 5.2-5.1c2.2-1.2 4.6-1.8 7-1.8c2.5 0 4.9 0.6 7 1.8c2.2 1.2 3.9 3 5.2 5.1l3-1.9zm-25.8-25.6c-0.7 0.7-1.1 1.6-1.1 2.5c0 0.7 0.2 1.4 0.6 2c0.4 0.6 1 1.1 1.6 1.3c0.7 0.3 1.4 0.4 2.1 0.2c0.7-0.1 1.3-0.4 1.8-0.9c0.5-0.5 0.8-1.2 1-1.9c0.1-0.7 0-1.4-0.2-2c-0.3-0.7-0.7-1.2-1.3-1.6c-0.6-0.4-1.3-0.6-2-0.6c-1 0-1.9 0.4-2.5 1z"/>
			<path id="Layer" class="s1" d="m71.6 46.8v13.1h-13.1z"/>
		</g>
	</g>
	<path id="Layer" class="s2" d="m-6886.5-587.5h8107v2672h-8107z"/>
</svg>