<svg width="12" height="12" viewBox="0 0 12 12" fill="none" xmlns="http://www.w3.org/2000/svg">
<path id="Fill 1" fill-rule="evenodd" clip-rule="evenodd" d="M1.51404 8.88327C1.36591 9.55482 1.21635 10.2314 1.06534 10.9169C1.75278 10.7666 2.43087 10.6183 3.11219 10.4694C2.57756 9.93852 2.04688 9.41197 1.51404 8.88327ZM10.8857 3.28654C10.1634 2.56474 9.44464 1.8476 8.736 1.14016L7.73864 2.13582C8.44693 2.84075 9.16061 3.55143 9.87717 4.26461C10.2119 3.93978 10.5506 3.61137 10.8857 3.28654ZM7.05862 2.80989C5.3465 4.51873 3.63294 6.22974 1.91974 7.94002C2.63091 8.6471 3.34603 9.35778 4.05252 10.0598C5.76285 8.35494 7.47784 6.64501 9.18997 4.9376L7.05862 2.80989ZM11.9999 3.27506C12.0017 3.40822 11.9622 3.51051 11.8817 3.59665C11.8529 3.62788 11.8227 3.65767 11.7928 3.68746C9.3426 6.12852 6.89162 8.56922 4.44281 11.0121C4.33027 11.1248 4.20408 11.1869 4.05019 11.2202C2.89248 11.4722 1.73405 11.7213 0.579571 11.9876C0.242324 12.0652 -0.0658004 11.7669 0.0122194 11.4116C0.272885 10.2321 0.534628 9.05305 0.794215 7.87362C0.820102 7.75589 0.875471 7.66006 0.961041 7.57463C2.28486 6.25235 3.6076 4.92863 4.93034 3.60527C6.07907 2.45634 7.22743 1.30742 8.3758 0.15814C8.53327 0.000571701 8.72707 -0.0432173 8.90899 0.0447196C8.95861 0.0687677 9.00607 0.103583 9.04526 0.142706C9.97646 1.07053 10.9051 2.00051 11.8378 2.9269C11.9421 3.03063 12.0021 3.14369 11.9999 3.27506Z" fill="#0A699B"/>
</svg>
