<svg width="17" height="15" viewBox="0 0 17 15"
  xmlns="http://www.w3.org/2000/svg">
  <path d="M14.8752 6.08332V1.83332C14.8752 1.05416 14.2377 0.416656 13.4585 0.416656H2.12516C1.346 0.416656 0.715579 1.05416 0.715579 1.83332L0.708496 10.3333C0.708496 11.1125 1.346 11.75 2.12516 11.75H9.91683V8.20832C9.91683 7.03249 10.866 6.08332 12.0418 6.08332H14.8752ZM7.79183 6.79166L2.12516 3.24999V1.83332L7.79183 5.37499L13.4585 1.83332V3.24999L7.79183 6.79166Z"/>
  <path d="M14.875 8.91666V11.75C14.875 12.5292 14.2375 13.1667 13.4583 13.1667C12.6792 13.1667 12.0417 12.5292 12.0417 11.75V8.56249C12.0417 8.36416 12.1975 8.20832 12.3958 8.20832C12.5942 8.20832 12.75 8.36416 12.75 8.56249V11.75H14.1667V8.56249C14.1667 7.58499 13.3733 6.79166 12.3958 6.79166C11.4183 6.79166 10.625 7.58499 10.625 8.56249V11.75C10.625 13.3154 11.8929 14.5833 13.4583 14.5833C15.0237 14.5833 16.2917 13.3154 16.2917 11.75V8.91666H14.875Z"/>
</svg>
