<svg width="11" height="8" viewBox="-.1 0 11 8.1" xmlns="http://www.w3.org/2000/svg">
    <g fill-rule="evenodd">
        <path d="M5.424.003c1.4 0 2.798-.01 4.198.004.852.008 1.23.443 1.21 1.292-.008.288-.147.47-.35.622-1.4 1.048-2.794 2.101-4.207 3.13-.633.46-1.1.446-1.741-.025C3.139 4 1.764 2.948.369 1.924c-.4-.292-.378-.668-.314-1.07C.12.435.379.165.782.061c.206-.053.429-.055.644-.056C2.759.001 4.091.003 5.424.003"/>
        <g transform="translate(0 2.655)">
            <path d="M5.405 5.448H1.46C.344 5.448.025 5.132.025 4.036.025 2.887.02 1.74.03.59.03.405-.082.146.124.046.3-.039.441.186.581.29c1.049.765 2.09 1.54 3.133 2.31.16.12.321.237.487.348.923.615 1.57.633 2.482-.017C7.902 2.061 9.09 1.15 10.3.268c.133-.097.258-.329.456-.206.153.095.065.31.066.47.006 1.214.005 2.43.002 3.644-.001.901-.362 1.266-1.274 1.27-1.382.007-2.764.002-4.145.002"/>
        </g>
    </g>
</svg>