<svg width="86" height="86" fill="none" xmlns="http://www.w3.org/2000/svg" viewBox="0 3 86 86"><g filter="url(#filter0_d)"><rect x="14.247" y="12.973" width="48.31" height="63.494" rx="2" fill="#fff"/></g><rect x="21.148" y="35.061" width="4.141" height="4.141" rx=".5" fill="#063D5B"/><rect x="28.05" y="35.06" width="27.606" height="4.141" rx=".5" fill="#063D5B"/><rect x="21.148" y="44.722" width="4.141" height="4.141" rx=".5" fill="#063D5B"/><rect x="28.05" y="44.722" width="27.606" height="4.141" rx=".5" fill="#063D5B"/><rect x="21.148" y="54.383" width="4.141" height="4.141" rx=".5" fill="#063D5B"/><rect x="28.05" y="54.383" width="27.606" height="4.141" rx=".5" fill="#063D5B"/><rect x="41.853" y="64.044" width="13.803" height="4.141" rx=".5" fill="#063D5B"/><path d="M28.734 26.858V29h-7.868v-9.8h7.686v2.142H23.61v1.652h4.354v2.072H23.61v1.792h5.124zm3.946-4.536a2.43 2.43 0 011.05-.77c.439-.177.938-.266 1.498-.266v2.394a5.438 5.438 0 00-.602-.042c-.57 0-1.017.154-1.344.462-.317.308-.476.78-.476 1.414V29h-2.66v-7.588h2.534v.91zm6.18 0a2.43 2.43 0 011.05-.77c.438-.177.938-.266 1.498-.266v2.394a5.44 5.44 0 00-.602-.042c-.57 0-1.018.154-1.344.462-.318.308-.476.78-.476 1.414V29h-2.66v-7.588h2.534v.91zm7.385 6.804c-.812 0-1.545-.168-2.198-.504a3.854 3.854 0 01-1.54-1.4c-.364-.597-.546-1.274-.546-2.03 0-.747.182-1.419.546-2.016a3.777 3.777 0 011.526-1.386c.653-.336 1.39-.504 2.212-.504.821 0 1.559.168 2.212.504a3.661 3.661 0 011.526 1.386c.364.588.546 1.26.546 2.016s-.182 1.433-.546 2.03a3.755 3.755 0 01-1.526 1.4c-.653.336-1.39.504-2.212.504zm0-2.114c.467 0 .85-.159 1.148-.476.299-.327.448-.775.448-1.344 0-.56-.15-.999-.448-1.316-.299-.317-.681-.476-1.148-.476-.467 0-.85.159-1.148.476-.299.317-.448.756-.448 1.316 0 .57.15 1.017.448 1.344.299.317.681.476 1.148.476zm8.05-4.69a2.43 2.43 0 011.05-.77c.439-.177.938-.266 1.498-.266v2.394a5.437 5.437 0 00-.602-.042c-.57 0-1.017.154-1.344.462-.317.308-.476.78-.476 1.414V29h-2.66v-7.588h2.534v.91z" fill="#063D5B"/><circle cx="62.5" cy="52.5" r="10.5" fill="#fff"/><path fill-rule="evenodd" clip-rule="evenodd" d="M76.448 52.373c0 3.604-1.253 6.92-3.312 9.471l.573.605h1.677L86 73.642 82.816 77 72.202 65.807v-1.769l-.573-.604c-2.401 2.171-5.543 3.492-8.98 3.492C55.093 66.839 49 60.358 49 52.375c0-7.983 6.094-14.462 13.643-14.551 7.63-.003 13.805 6.512 13.805 14.549zM62.652 42.299c-5.307 0-9.553 4.477-9.553 10.074 0 5.596 4.246 10.074 9.553 10.074 5.306 0 9.552-4.478 9.552-10.074 0-5.597-4.245-10.074-9.552-10.074z" fill="#2E8FC2"/><defs><filter id="filter0_d" x=".247" y=".973" width="76.31" height="91.494" filterUnits="userSpaceOnUse" color-interpolation-filters="sRGB"><feFlood flood-opacity="0" result="BackgroundImageFix"/><feColorMatrix in="SourceAlpha" values="0 0 0 0 0 0 0 0 0 0 0 0 0 0 0 0 0 0 127 0"/><feOffset dy="2"/><feGaussianBlur stdDeviation="7"/><feColorMatrix values="0 0 0 0 0.689398 0 0 0 0 0.755885 0 0 0 0 0.777655 0 0 0 0.5 0"/><feBlend in2="BackgroundImageFix" result="effect1_dropShadow"/><feBlend in="SourceGraphic" in2="effect1_dropShadow" result="shape"/></filter></defs></svg>