<svg width="11" height="41" viewBox="0 0 11 41" fill="none" xmlns="http://www.w3.org/2000/svg">
<path fill-rule="evenodd" clip-rule="evenodd" d="M10.7499 0.230469L9.00737 25.9187H2.03727L0.294742 0.230469H10.7499ZM9.37554 38.5374C8.34501 39.5305 7.06154 40.027 5.52512 40.027C3.9887 40.027 2.70522 39.5305 1.6747 38.5374C0.644169 37.5444 0.128906 36.3359 0.128906 34.9119C0.128906 33.4879 0.634801 32.2981 1.64659 31.3425C2.65838 30.3869 3.95122 29.9091 5.52512 29.9091C7.09901 29.9091 8.39185 30.3869 9.40364 31.3425C10.4154 32.2981 10.9213 33.4879 10.9213 34.9119C10.9213 36.3359 10.4061 37.5444 9.37554 38.5374Z" fill="#D04532"/>
</svg>
