<svg width="15" height="15" viewBox="0 0 15 15" fill="none" xmlns="http://www.w3.org/2000/svg">
<path d="M13.7335 13.7467C13.7335 11.6623 13.7335 9.57784 13.7335 7.5066C14.1557 7.5066 14.5647 7.5066 14.9868 7.5066C14.9868 7.53298 14.9868 7.54617 14.9868 7.57256C14.9868 9.61741 14.9868 11.6755 14.9868 13.7203C14.9868 14.2876 14.657 14.7493 14.1293 14.934C13.9974 14.9736 13.8523 15 13.7071 15C9.56465 15 5.42217 15 1.27968 15C0.712402 15 0.25066 14.6834 0.0659631 14.1425C0.0131926 14.0106 0 13.8522 0 13.7071C0 10.5409 0 7.37467 0 4.19525C0 3.23219 0 2.25594 0 1.29288C0 0.85752 0.171504 0.501319 0.527705 0.237467C0.738787 0.0791557 0.989447 0 1.2533 0C3.31135 0 5.3694 0 7.42745 0C7.44064 0 7.45383 0 7.48022 0C7.48022 0.422164 7.48022 0.831135 7.48022 1.2533C5.39578 1.2533 3.32454 1.2533 1.24011 1.2533C1.24011 5.42216 1.24011 9.57784 1.24011 13.7467C5.40898 13.7467 9.56465 13.7467 13.7335 13.7467Z" fill="#0A699B"/>
<path d="M9.98802 1.2533C9.98802 0.831135 9.98802 0.422164 9.98802 0C10.0144 0 10.0276 0 10.054 0C11.4788 0 12.9036 0 14.3152 0C14.6318 0 14.8825 0.171504 14.9616 0.461741C14.9748 0.514512 14.988 0.580475 14.988 0.633245C14.988 2.07124 14.988 3.50924 14.988 4.94723C14.988 4.96042 14.988 4.97362 14.988 4.98681C14.5659 4.98681 14.1569 4.98681 13.7347 4.98681C13.7347 4.03694 13.7347 3.08707 13.7347 2.12401C11.9405 3.9314 10.1595 5.7124 8.39172 7.4934C8.08829 7.18997 7.79805 6.89974 7.50781 6.6095C9.28882 4.8285 11.0698 3.04749 12.8508 1.2533C11.8878 1.2533 10.9511 1.2533 9.98802 1.2533Z" fill="#0A699B"/>
</svg>
