<svg width="79" height="79" viewBox="0 0 79 79" fill="none" xmlns="http://www.w3.org/2000/svg">
    <g id="Group 7">
        <circle id="Oval" cx="39.5" cy="39.5" r="39.5" fill="#E6F2F8"/>
        <g id="Group 2">
            <g id="Rectangle" filter="url(#filter0_d)">
                <rect x="22" y="18" width="33.4783" height="44" rx="2" fill="white"/>
            </g>
            <g id="Group">
                <rect id="Rectangle Copy" x="26.7832" y="26.6094" width="2.86957" height="2.86957" rx="0.5"
                      fill="#063D5B"/>
                <rect id="Rectangle Copy 2" x="31.5664" y="26.6094" width="19.1304" height="2.86957" rx="0.5"
                      fill="#063D5B"/>
            </g>
            <g id="Group Copy">
                <rect id="Rectangle Copy_2" x="26.7832" y="33.3047" width="2.86957" height="2.86957" rx="0.5"
                      fill="#063D5B"/>
                <rect id="Rectangle Copy 2_2" x="31.5664" y="33.3047" width="19.1304" height="2.86957" rx="0.5"
                      fill="#063D5B"/>
            </g>
            <g id="Group Copy 2">
                <rect id="Rectangle Copy_3" x="26.7832" y="40" width="2.86957" height="2.86957" rx="0.5"
                      fill="#063D5B"/>
                <rect id="Rectangle Copy 2_3" x="31.5664" y="40" width="19.1304" height="2.86957" rx="0.5"
                      fill="#063D5B"/>
            </g>
            <g id="Group Copy 3">
                <rect id="Rectangle Copy_4" x="26.7832" y="46.6953" width="2.86957" height="2.86957" rx="0.5"
                      fill="#063D5B"/>
                <rect id="Rectangle Copy 2_4" x="31.5664" y="46.6953" width="19.1304" height="2.86957" rx="0.5"
                      fill="#063D5B"/>
                <rect id="Rectangle Copy 3" x="41.1309" y="53.3906" width="9.56522" height="2.86957" rx="0.5"
                      fill="#063D5B"/>
            </g>
        </g>
        <path id="Path 2" d="M76.5103 13L79 15.1191L69.389 27L62 19.7287L64.2397 17.334L69.1179 22.1351L76.5103 13Z"
              fill="#063D5B"/>
    </g>
    <defs>
        <filter id="filter0_d" x="8" y="6" width="61.4783" height="72" filterUnits="userSpaceOnUse"
                color-interpolation-filters="sRGB">
            <feFlood flood-opacity="0" result="BackgroundImageFix"/>
            <feColorMatrix in="SourceAlpha" type="matrix" values="0 0 0 0 0 0 0 0 0 0 0 0 0 0 0 0 0 0 127 0"
                           result="hardAlpha"/>
            <feOffset dy="2"/>
            <feGaussianBlur stdDeviation="7"/>
            <feColorMatrix type="matrix" values="0 0 0 0 0.689398 0 0 0 0 0.755885 0 0 0 0 0.777655 0 0 0 0.5 0"/>
            <feBlend mode="normal" in2="BackgroundImageFix" result="effect1_dropShadow"/>
            <feBlend mode="normal" in="SourceGraphic" in2="effect1_dropShadow" result="shape"/>
        </filter>
    </defs>
</svg>
