<svg width="41" height="37" viewBox="0 0 41 37" fill="none" xmlns="http://www.w3.org/2000/svg">
<path d="M33.3894 0.331055L32.2106 1.5098L37.3612 6.66043H0V8.30043H37.3612L32.2106 13.4511L33.3894 14.6298L39.9494 8.06981L40.5131 7.48043L39.9494 6.89106L33.3894 0.331055ZM0 12.4004V37.0004H1.64V12.4004H0ZM4.92 12.4004V37.0004H6.56V12.4004H4.92ZM9.84 12.4004V37.0004H11.48V12.4004H9.84ZM14.76 12.4004V37.0004H16.4V12.4004H14.76ZM19.68 12.4004V37.0004H21.32V12.4004H19.68ZM24.6 12.4004V37.0004H26.24V12.4004H24.6ZM39.36 12.4004V37.0004H41V12.4004H39.36ZM29.52 16.5004V37.0004H31.16V16.5004H29.52ZM34.44 16.5004V37.0004H36.08V16.5004H34.44Z" fill="#34913F"/>
</svg>
