<svg width="23" height="23" viewBox="0 0 23 23" fill="none" xmlns="http://www.w3.org/2000/svg">
<g id="Group">
<circle id="Oval" cx="11.5" cy="11.5" r="11.5" fill="#2E8FC2"/>
<path id="i" fill-rule="evenodd" clip-rule="evenodd" d="M12.7798 6.64646C12.4486 6.95926 12.0193 7.11566 11.4918 7.11566C10.9644 7.11566 10.535 6.96233 10.2038 6.65566C9.87263 6.349 9.70703 5.96873 9.70703 5.51486C9.70703 5.061 9.87263 4.68073 10.2038 4.37406C10.535 4.0674 10.9644 3.91406 11.4918 3.91406C12.0193 3.91406 12.4486 4.06126 12.7798 4.35566C13.111 4.65006 13.2766 5.01806 13.2766 5.45966C13.2766 5.93806 13.111 6.33366 12.7798 6.64646ZM12.9266 8.49577V18.395H10.0562V8.49577H12.9266Z" fill="white"/>
</g>
</svg>
