<svg width="36" height="38" viewBox="0 0 36 38" fill="none" xmlns="http://www.w3.org/2000/svg">
<path d="M17.9025 11.1747C13.2475 11.1747 8.59136 11.1747 3.93636 11.1747C3.7307 11.1747 3.52391 11.1836 3.32049 11.1614C2.79228 11.105 2.38095 10.7709 2.27194 10.2985C2.15843 9.80289 2.30903 9.38914 2.72373 9.07937C2.84286 8.99087 2.9721 8.91564 3.09797 8.83709C7.71026 5.9983 12.3282 3.16726 16.9303 0.310765C17.6069 -0.109632 18.1666 -0.0996754 18.8386 0.317403C23.4408 3.17279 28.0587 6.00383 32.671 8.84262C32.8137 8.93002 32.9598 9.01521 33.0868 9.12252C33.4588 9.43671 33.6162 9.83277 33.4824 10.3085C33.3431 10.803 32.9913 11.0807 32.4833 11.1559C32.2821 11.1858 32.0731 11.1736 31.8674 11.1736C27.2124 11.1747 22.5575 11.1747 17.9025 11.1747Z" fill="#063D5B"/>
<path d="M9.49556 23.5151C9.49556 25.814 9.49556 28.1118 9.49556 30.4107C9.49556 30.5577 9.50292 30.7047 9.49661 30.8517C9.4861 31.1059 9.5975 31.2231 9.83817 31.2231C9.97795 31.2231 10.1188 31.233 10.2554 31.2574C10.846 31.3612 11.2065 31.8387 11.1729 32.4643C11.1414 33.0501 10.7409 33.4689 10.1566 33.5176C10 33.5308 9.84238 33.5297 9.68473 33.5297C7.67425 33.5297 5.66481 33.5297 3.65433 33.5286C3.51455 33.5286 3.37372 33.5319 3.235 33.5176C2.66538 33.4601 2.26076 33.0169 2.23764 32.4355C2.21452 31.852 2.57605 31.3756 3.13936 31.2618C3.2928 31.2308 3.4515 31.222 3.60809 31.2187C3.82984 31.2143 3.92022 31.0949 3.91392 30.8716C3.91076 30.7434 3.91602 30.6141 3.91602 30.4859C3.91602 25.8151 3.91602 21.1455 3.91602 16.4747C3.91602 16.4383 3.91602 16.4007 3.91602 16.3642C3.91392 15.7552 3.92863 15.7342 3.36111 15.7243C2.69586 15.7121 2.2471 15.238 2.23554 14.6013C2.22503 13.968 2.66433 13.4884 3.32118 13.4209C3.42522 13.4099 3.53032 13.4132 3.63541 13.4121C5.68058 13.4121 7.72575 13.4121 9.77091 13.4121C9.98005 13.4121 10.1892 13.411 10.3941 13.4784C10.9196 13.6497 11.2181 14.1161 11.1718 14.6986C11.1288 15.2302 10.7483 15.6425 10.227 15.721C10.2102 15.7232 10.1923 15.7243 10.1745 15.7254C9.49451 15.8027 9.49451 15.8027 9.49451 16.509C9.49451 18.8455 9.49556 21.1798 9.49556 23.5151Z" fill="#063D5B"/>
<path d="M20.6718 23.5151C20.6718 25.814 20.6718 28.1118 20.6718 30.4107C20.6718 30.5577 20.6792 30.7047 20.6729 30.8517C20.6624 31.1059 20.7738 31.2231 21.0144 31.2231C21.1542 31.2231 21.295 31.233 21.4317 31.2574C22.0223 31.3612 22.3828 31.8387 22.3492 32.4643C22.3176 33.0501 21.9172 33.4689 21.3329 33.5176C21.1763 33.5308 21.0186 33.5297 20.861 33.5297C18.8505 33.5297 16.8411 33.5297 14.8306 33.5286C14.6908 33.5286 14.55 33.5319 14.4113 33.5176C13.8416 33.4601 13.437 33.0169 13.4139 32.4355C13.3908 31.852 13.7523 31.3756 14.3156 31.2618C14.4691 31.2308 14.6278 31.222 14.7844 31.2187C15.0061 31.2143 15.0965 31.0949 15.0902 30.8716C15.087 30.7434 15.0923 30.6141 15.0923 30.4859C15.0923 25.8151 15.0923 21.1455 15.0923 16.4747C15.0923 16.4383 15.0923 16.4007 15.0923 16.3642C15.0902 15.7552 15.1049 15.7342 14.5374 15.7243C13.8721 15.7121 13.4234 15.238 13.4118 14.6013C13.4013 13.968 13.8406 13.4884 14.4974 13.4209C14.6015 13.4099 14.7066 13.4132 14.8117 13.4121C16.8568 13.4121 18.902 13.4121 20.9472 13.4121C21.1563 13.4121 21.3655 13.411 21.5704 13.4784C22.0959 13.6497 22.3944 14.1161 22.3481 14.6986C22.305 15.2302 21.9246 15.6425 21.4033 15.721C21.3865 15.7232 21.3686 15.7243 21.3507 15.7254C20.6708 15.8027 20.6708 15.8027 20.6708 16.509C20.6708 18.8455 20.6718 21.1798 20.6718 23.5151Z" fill="#063D5B"/>
<path d="M31.8486 23.5151C31.8486 25.814 31.8486 28.1118 31.8486 30.4107C31.8486 30.5577 31.8559 30.7047 31.8496 30.8517C31.8391 31.1059 31.9505 31.2231 32.1912 31.2231C32.331 31.2231 32.4718 31.233 32.6084 31.2574C33.1991 31.3612 33.5595 31.8387 33.5259 32.4643C33.4944 33.0501 33.094 33.4689 32.5096 33.5176C32.353 33.5308 32.1954 33.5297 32.0378 33.5297C30.0273 33.5297 28.0178 33.5297 26.0074 33.5286C25.8676 33.5286 25.7268 33.5319 25.588 33.5176C25.0184 33.4601 24.6138 33.0169 24.5907 32.4355C24.5675 31.852 24.9291 31.3756 25.4924 31.2618C25.6458 31.2308 25.8045 31.222 25.9611 31.2187C26.1829 31.2143 26.2733 31.0949 26.2669 30.8716C26.2638 30.7434 26.269 30.6141 26.269 30.4859C26.269 25.8151 26.269 21.1455 26.269 16.4747C26.269 16.4383 26.269 16.4007 26.269 16.3642C26.2669 15.7552 26.2817 15.7342 25.7141 15.7243C25.0489 15.7121 24.6001 15.238 24.5886 14.6013C24.5781 13.968 25.0174 13.4884 25.6742 13.4209C25.7782 13.4099 25.8833 13.4132 25.9884 13.4121C28.0336 13.4121 30.0788 13.4121 32.1239 13.4121C32.3331 13.4121 32.5422 13.411 32.7472 13.4784C33.2726 13.6497 33.5711 14.1161 33.5249 14.6986C33.4818 15.2302 33.1013 15.6425 32.5801 15.721C32.5632 15.7232 32.5454 15.7243 32.5275 15.7254C31.8475 15.8027 31.8475 15.8027 31.8475 16.509C31.8475 18.8455 31.8486 21.1798 31.8486 23.5151Z" fill="#063D5B"/>
<path d="M17.9035 35.7658C23.2487 35.7658 28.5951 35.7658 33.9403 35.7669C34.2086 35.7669 34.4792 35.7615 34.7429 35.7966C35.3336 35.8732 35.7481 36.3135 35.7642 36.8485C35.7803 37.3824 35.3911 37.8419 34.8073 37.9525C34.6024 37.9908 34.3893 37.9993 34.1798 37.9993C23.3155 38.0015 12.4523 38.0015 1.58804 37.9993C1.36005 37.9993 1.12514 37.9897 0.904059 37.943C0.32486 37.8206 -0.0332531 37.3537 0.00244304 36.8049C0.0358362 36.2891 0.440009 35.87 1.00539 35.7966C1.26908 35.7626 1.54083 35.7679 1.80798 35.7679C7.17391 35.7647 12.5387 35.7658 17.9035 35.7658Z" fill="#063D5B"/>
</svg>
