<svg width="60" height="39" viewBox="0 0 60 39" fill="none" xmlns="http://www.w3.org/2000/svg">
<path fill-rule="evenodd" clip-rule="evenodd" d="M40.9089 21.8182C40.118 21.8182 39.218 21.8182 38.2635 21.9545C41.4271 24.2455 43.6362 27.2727 43.6362 31.3636V38.1818H59.9999V31.3636C59.9999 25.0091 47.2635 21.8182 40.9089 21.8182ZM19.0909 21.8182C12.7364 21.8182 0 25.0091 0 31.3636V38.1818H38.1818V31.3636C38.1818 25.0091 25.4455 21.8182 19.0909 21.8182ZM19.0909 16.3636C23.6182 16.3636 27.2727 12.7091 27.2727 8.18182C27.2727 3.65455 23.6182 0 19.0909 0C14.5636 0 10.9091 3.65455 10.9091 8.18182C10.9091 12.7091 14.5636 16.3636 19.0909 16.3636ZM40.9091 16.3636C45.4364 16.3636 49.0909 12.7091 49.0909 8.18182C49.0909 3.65455 45.4364 0 40.9091 0C36.3818 0 32.7273 3.65455 32.7273 8.18182C32.7273 12.7091 36.3818 16.3636 40.9091 16.3636Z" fill="#063D5B"/>
</svg>
