<svg width="41" height="41" viewBox="0 0 41 41" fill="none" xmlns="http://www.w3.org/2000/svg">
<path d="M20.5 40.3594C31.468 40.3594 40.3594 31.468 40.3594 20.5C40.3594 9.53197 31.468 0.640625 20.5 0.640625C9.53197 0.640625 0.640625 9.53197 0.640625 20.5C0.640625 31.468 9.53197 40.3594 20.5 40.3594Z" stroke="#34913F" stroke-miterlimit="10" stroke-linejoin="round"/>
<path d="M20.5 36.5156C29.3452 36.5156 36.5156 29.3452 36.5156 20.5C36.5156 11.6548 29.3452 4.48438 20.5 4.48438C11.6548 4.48438 4.48438 11.6548 4.48438 20.5C4.48438 29.3452 11.6548 36.5156 20.5 36.5156Z" stroke="#34913F" stroke-miterlimit="10" stroke-linejoin="round"/>
<path d="M11.5312 29.4688L23.0625 23.0625L17.9375 17.9375L11.5312 29.4688Z" stroke="#34913F" stroke-miterlimit="10" stroke-linejoin="round"/>
<path d="M23.0625 23.0625L29.4688 11.5312L17.9375 17.9375" stroke="#34913F" stroke-miterlimit="10" stroke-linejoin="round"/>
<path d="M33.3125 20.5H32.0312" stroke="#34913F" stroke-miterlimit="10" stroke-linejoin="round"/>
<path d="M8.96875 20.5H7.6875" stroke="#34913F" stroke-miterlimit="10" stroke-linejoin="round"/>
<path d="M19.8594 8.32812H21.1406" stroke="#34913F" stroke-miterlimit="10" stroke-linejoin="round"/>
<path d="M19.8594 32.6719H21.1406" stroke="#34913F" stroke-miterlimit="10" stroke-linejoin="round"/>
<path d="M27.5197 16.0166C28.348 17.3107 28.8285 18.8501 28.8285 20.5003C28.8285 25.1 25.1 28.8285 20.5003 28.8285C18.8501 28.8285 17.3107 28.348 16.0166 27.5197" stroke="#34913F" stroke-miterlimit="10" stroke-linecap="round" stroke-linejoin="round"/>
<path d="M13.4794 24.9818C12.6517 23.6884 12.1719 22.1502 12.1719 20.5C12.1719 15.9003 15.9003 12.1719 20.5 12.1719C22.1502 12.1719 23.6884 12.6517 24.9818 13.4794" stroke="#34913F" stroke-miterlimit="10" stroke-linecap="round" stroke-linejoin="round"/>
<path d="M20.5 0.640625V4.48438" stroke="#34913F" stroke-miterlimit="10" stroke-linejoin="round"/>
<path d="M40.3594 20.5H36.5156" stroke="#34913F" stroke-miterlimit="10" stroke-linejoin="round"/>
<path d="M20.5 36.5156V40.3594" stroke="#34913F" stroke-miterlimit="10" stroke-linejoin="round"/>
<path d="M4.48438 20.5H0.640625" stroke="#34913F" stroke-miterlimit="10" stroke-linejoin="round"/>
</svg>
