<svg width="43" height="45" viewBox="0 0 43 45" fill="none" xmlns="http://www.w3.org/2000/svg">
<path fill-rule="evenodd" clip-rule="evenodd" d="M32.9312 18.5976C32.9312 22.4616 31.611 26.016 29.4406 28.752L30.0448 29.4H31.8124L43 41.4L39.6437 45L28.4561 33V31.104L27.852 30.456C25.3213 32.784 22.0098 34.2 18.3873 34.2C10.4217 34.1064 4 27.1584 4 18.6C4 10.0416 10.4239 3.096 18.3806 3C26.4222 2.9976 32.9312 9.9816 32.9312 18.5976ZM18 8C12.4444 8 8 12.8889 8 19C8 25.1111 12.4444 30 18 30C23.5556 30 28 25.1111 28 19C28 12.8889 23.5556 8 18 8Z" fill="#00A0AA"/>
<path d="M31.5236 0L38 6.49798L6.47644 38L0 31.502L31.5236 0Z" fill="white"/>
<path d="M32.7396 2L36 5.27227L4.26041 37L1 33.7277L32.7396 2Z" fill="#00A0AA"/>
</svg>
