<svg width="21" height="29" viewBox="0 0 21 29" fill="none" xmlns="http://www.w3.org/2000/svg">
<g clip-path="url(#clip0)">
<path d="M7.25524 10.803L13.9371 19.1056H15.6075L6.82569 8.30273H4.3916V9.52926H5.91887V17.879H4.3916V19.1056H8.63933V17.879H7.15978V10.7086L7.25524 10.803Z" fill="#115840"/>
<path d="M16.8962 8.30273H12.6484V9.52926H14.128V14.4353H15.4166V9.52926H16.8962V8.30273Z" fill="#115840"/>
<path d="M12.8385 4.2932C13.1249 3.82147 13.2681 3.30255 13.2681 2.83081C13.2681 1.32125 12.0272 0.0947266 10.4999 0.0947266C8.97262 0.0947266 7.73171 1.32125 7.73171 2.83081C7.73171 3.34973 7.87489 3.82147 8.16126 4.24603L8.20899 4.2932H2.95898V5.5669H9.87944V9.7182L11.1681 11.3221V5.5669H18.1363V4.2932H12.8385ZM10.4999 4.2932C9.68853 4.2932 9.02035 3.63277 9.02035 2.83081C9.02035 2.02886 9.68853 1.36842 10.4999 1.36842C11.3113 1.36842 11.9794 2.02886 11.9794 2.83081C11.9794 3.63277 11.3113 4.2932 10.4999 4.2932Z" fill="#115840"/>
<path d="M19.6162 15.6149C19.4252 17.549 18.5662 19.3888 17.2298 20.8512C15.6548 22.5023 13.5071 23.5401 11.2162 23.6816H11.1684V17.9736L9.87979 16.3697V23.6816H9.83207C7.54116 23.4929 5.39343 22.5023 3.81843 20.8512C2.43434 19.3888 1.62298 17.5962 1.43207 15.6149L0.0957031 14.4355V14.6714C0.0957031 16.5584 0.620703 18.3982 1.62298 20.0492C2.62525 21.6532 4.00934 22.9269 5.67979 23.8232L10.5002 28.0216L15.3207 23.8232C16.9912 22.974 18.423 21.6532 19.3775 20.0492C20.3798 18.4453 20.9048 16.5584 20.9048 14.7186V14.4827L19.6162 15.6149ZM10.5002 26.3234L8.78207 24.8138H8.87752C9.40252 24.9082 9.97525 24.9553 10.5002 24.9553C11.0252 24.9553 11.5502 24.9082 12.123 24.8138H12.2184L10.5002 26.3234Z" fill="#115840"/>
</g>
<defs>
<clipPath id="clip0">
<rect width="21" height="28.3043" fill="white"/>
</clipPath>
</defs>
</svg>
