<svg width="20" height="20" viewBox="0 0 20 20" fill="none" xmlns="http://www.w3.org/2000/svg">
<circle cx="10" cy="10" r="10" fill="#0A699B"/>
<g clip-path="url(#clip0_23303_20199)">
<path d="M7.70392 11.3775H10.9182V12.2959H7.70392V11.3775ZM7.70392 9.54081H12.2958V10.4592H7.70392V9.54081ZM7.70392 7.70408H12.2958V8.62244H7.70392V7.70408ZM13.2141 5.86734H11.2947C11.1019 5.33469 10.5968 4.94897 9.99984 4.94897C9.4029 4.94897 8.8978 5.33469 8.70494 5.86734H6.78555C6.72127 5.86734 6.66158 5.87193 6.60188 5.88571C6.4228 5.92244 6.26209 6.01428 6.13811 6.13826C6.05545 6.22091 5.98658 6.32193 5.94066 6.43214C5.89474 6.53775 5.86719 6.65714 5.86719 6.78571V13.2143C5.86719 13.3383 5.89474 13.4622 5.94066 13.5724C5.98658 13.6826 6.05545 13.7791 6.13811 13.8663C6.26209 13.9903 6.4228 14.0821 6.60188 14.1189C6.66158 14.1281 6.72127 14.1326 6.78555 14.1326H13.2141C13.7192 14.1326 14.1325 13.7194 14.1325 13.2143V6.78571C14.1325 6.28061 13.7192 5.86734 13.2141 5.86734ZM9.99984 5.75255C10.1881 5.75255 10.3442 5.90867 10.3442 6.09693C10.3442 6.2852 10.1881 6.44132 9.99984 6.44132C9.81158 6.44132 9.65545 6.2852 9.65545 6.09693C9.65545 5.90867 9.81158 5.75255 9.99984 5.75255ZM13.2141 13.2143H6.78555V6.78571H13.2141V13.2143Z" fill="white"/>
</g>
<defs>
<clipPath id="clip0_23303_20199">
<rect width="11.0204" height="11.0204" fill="white" transform="translate(4.48975 4.48981)"/>
</clipPath>
</defs>
</svg>
