<svg width="30" height="30" viewBox="0 0 30 30" xmlns="http://www.w3.org/2000/svg">
<path d="M8.83716 19.301C8.83716 18.8028 8.49145 18.5057 7.88148 18.5057C7.63241 18.5057 7.46372 18.5303 7.37549 18.5538V20.1523C7.47996 20.1758 7.60839 20.1836 7.78541 20.1836C8.43557 20.1836 8.83716 19.8552 8.83716 19.301Z"/>
<path d="M12.6137 18.5225C12.3405 18.5225 12.164 18.5461 12.0596 18.5706V22.1108C12.164 22.1353 12.3327 22.1353 12.4852 22.1353C13.5934 22.1431 14.3161 21.5332 14.3161 20.2407C14.3239 19.1167 13.6653 18.5225 12.6137 18.5225Z"/>
<path d="M19.6283 0H7.57905C5.81877 0 4.3861 1.43367 4.3861 3.19295V14.9999H4.07424C3.36378 14.9999 2.7876 15.5756 2.7876 16.2866V24.0896C2.7876 24.8006 3.36372 25.3762 4.07424 25.3762H4.3861V26.807C4.3861 28.5682 5.81877 29.9999 7.57905 29.9999H24.0197C25.7788 29.9999 27.2117 28.5681 27.2117 26.807V7.55687L19.6283 0ZM6.16299 17.6948C6.54006 17.6311 7.07007 17.583 7.8168 17.583C8.57144 17.583 9.10929 17.7271 9.47068 18.0164C9.81589 18.2891 10.0489 18.7391 10.0489 19.2688C10.0489 19.7983 9.87232 20.2485 9.55113 20.5534C9.13337 20.9467 8.51556 21.1232 7.79285 21.1232C7.632 21.1232 7.48783 21.1152 7.37508 21.0996V23.0345H6.16299V17.6948ZM24.0197 28.0445H7.57905C6.89746 28.0445 6.34244 27.4895 6.34244 26.807V25.3762H21.6685C22.3791 25.3762 22.9552 24.8006 22.9552 24.0896V16.2866C22.9552 15.5756 22.3791 14.9999 21.6685 14.9999H6.34244V3.19295C6.34244 2.51236 6.89752 1.95734 7.57905 1.95734L18.8967 1.94551V6.12892C18.8967 7.35085 19.8882 8.34324 21.111 8.34324L25.2091 8.33148L25.2552 26.8069C25.2552 27.4895 24.7012 28.0445 24.0197 28.0445ZM10.8304 23.01V17.6948C11.28 17.6232 11.8659 17.583 12.4843 17.583C13.512 17.583 14.1784 17.7674 14.7005 18.1606C15.2625 18.5784 15.6155 19.2443 15.6155 20.2003C15.6155 21.2359 15.2384 21.9508 14.7162 22.392C14.1464 22.8657 13.2791 23.0903 12.2195 23.0903C11.5849 23.0903 11.1354 23.0501 10.8304 23.01ZM19.5931 19.8631V20.8584H17.6498V23.0345H16.4216V17.6232H19.7293V18.6264H17.6498V19.8631H19.5931Z"/>
</svg>
