<svg width="44" height="38" viewBox="0 0 44 38" fill="none" xmlns="http://www.w3.org/2000/svg">
<path d="M8.9375 22.3936H15.125L22.6875 25.1078H28.875C30.0135 25.1078 30.9375 26.0192 30.9375 27.1436C30.9375 28.2679 30.0135 29.1793 28.875 29.1793H21.3125C20.174 29.1793 19.25 30.0906 19.25 31.215" stroke="#34913F" stroke-miterlimit="10"/>
<path d="M30.25 28.5003L41.25 25.1074C42.3885 25.1074 43.3125 26.0187 43.3125 27.1431C43.3125 27.8197 42.625 28.5003 42.625 28.5003L25.4375 37.3217H24.0625L12.375 33.2503H8.9375" stroke="#34913F" stroke-miterlimit="10"/>
<path d="M6.875 31.8936H5.5" stroke="#34913F" stroke-miterlimit="10"/>
<path d="M4.125 31.8936H2.75" stroke="#34913F" stroke-miterlimit="10"/>
<path d="M0 21.0361H8.25C8.63019 21.0361 8.9375 21.3395 8.9375 21.7147V33.929C8.9375 34.3042 8.63019 34.6076 8.25 34.6076H0" stroke="#34913F" stroke-miterlimit="10"/>
<path d="M30.25 15.6074H33.6875V18.3217H17.1875V15.6074H20.625" stroke="#34913F" stroke-miterlimit="10" stroke-linejoin="round"/>
<path d="M33.6875 15.6073L37.8125 0.678711L30.9375 9.50014L25.4375 0.678711L19.9375 9.50014L13.0625 0.678711L17.1875 15.6073" stroke="#34913F" stroke-miterlimit="10" stroke-linejoin="round"/>
<path d="M13.0625 0.678711L20.625 4.75014" stroke="#34913F" stroke-miterlimit="10" stroke-linejoin="round"/>
<path d="M37.8125 0.678711L30.25 4.75014" stroke="#34913F" stroke-miterlimit="10" stroke-linejoin="round"/>
<path d="M25.4375 12.8927C26.5766 12.8927 27.5 11.9813 27.5 10.857C27.5 9.73271 26.5766 8.82129 25.4375 8.82129C24.2984 8.82129 23.375 9.73271 23.375 10.857C23.375 11.9813 24.2984 12.8927 25.4375 12.8927Z" stroke="#34913F" stroke-miterlimit="10" stroke-linejoin="round"/>
<path d="M26.125 15.6074H24.75" stroke="#34913F" stroke-miterlimit="10" stroke-linejoin="round"/>
<path d="M23.375 15.6074H22" stroke="#34913F" stroke-miterlimit="10" stroke-linejoin="round"/>
<path d="M28.875 15.6074H27.5" stroke="#34913F" stroke-miterlimit="10" stroke-linejoin="round"/>
</svg>
