<svg width="16" height="14" viewBox="0 0 16 14" xmlns="http://www.w3.org/2000/svg">
<path fill-rule="evenodd" clip-rule="evenodd" d="M4.00623 1.99712H11.9962V1.00727H4.00623V1.99712ZM4.00515 12.9934H11.9974V7.00541H4.00515V12.9934ZM1.0041 3.00401V7.99459H3.00298V6.00705H13.0006V7.99526H14.9947V3.00401H1.0041ZM12.9984 2.00261H13.0943C13.7205 2.00261 14.3467 2.00171 14.9729 2.00294C15.5 2.00396 15.9002 2.34213 15.9882 2.86037C15.9979 2.91749 15.9974 2.9768 15.9974 3.03511C15.9978 4.67935 15.9938 6.3236 16 7.96781C16.002 8.50157 15.6077 9.0027 14.9657 9.00154C14.342 9.00045 13.7182 9.00133 13.0945 9.00133H12.9984V9.09063C12.9984 10.3865 12.9988 11.6825 12.9981 12.9784C12.9979 13.4308 12.7278 13.8163 12.3123 13.9451C12.2024 13.9792 12.0828 13.9975 11.9677 13.9976C9.32167 14.0005 6.6756 14.0003 4.02953 13.9994C3.43728 13.9992 3.00166 13.5612 3.00122 12.9675C3.00026 11.6789 3.00093 10.3903 3.00093 9.10171V9.00133H2.90792C2.28418 9.00133 1.66044 9.00177 1.03667 9.00113C0.757387 9.00083 0.509417 8.91542 0.306503 8.71881C0.116133 8.53428 0.00993915 8.30625 0.00467625 8.0427C-0.0036859 7.62388 0.00172319 7.20479 0.00169395 6.7858C0.00157699 5.53132 0.0011969 4.27681 0.00186938 3.02231C0.00213252 2.5711 0.267558 2.19121 0.688385 2.05544C0.799783 2.01948 0.922613 2.0058 1.04036 2.00489C1.66164 2.00007 2.28295 2.00261 2.90427 2.00261H3.00093V1.91983C3.00093 1.62752 3.00052 1.33524 3.00102 1.04293C3.00207 0.436272 3.4355 0.000760054 4.04219 0.000613899C6.68095 -8.76444e-05 9.31971 0.000672361 11.9585 4.85017e-08C12.4875 -0.000146106 12.8325 0.330047 12.9476 0.690933C12.981 0.795697 12.9937 0.910428 12.9962 1.02101C13.0026 1.31805 12.9984 1.61533 12.9984 1.91252V2.00261Z"/>
</svg>
