<svg width="12" height="10" viewBox="0 0 12 10" fill="none" xmlns="http://www.w3.org/2000/svg">
<path fill-rule="evenodd" clip-rule="evenodd" d="M6.66667 0C3.90556 0 1.66667 2.23889 1.66667 5H0L2.22222 7.22222L4.44444 5H2.77778C2.77778 2.85 4.51667 1.11111 6.66667 1.11111C8.81667 1.11111 10.5556 2.85 10.5556 5C10.5556 7.15 8.81667 8.88889 6.66667 8.88889C5.83333 8.88889 5.05 8.61111 4.41111 8.16667L3.61111 8.96667C4.46667 9.61111 5.52167 10 6.66667 10C9.42778 10 11.6667 7.76111 11.6667 5C11.6667 2.23889 9.42778 0 6.66667 0ZM7.77691 4.99783C7.77691 4.38672 7.27691 3.88672 6.6658 3.88672C6.05469 3.88672 5.55469 4.38672 5.55469 4.99783C5.55469 5.60894 6.05469 6.10894 6.6658 6.10894C7.27691 6.10894 7.77691 5.60894 7.77691 4.99783Z" fill="#3D4042"/>
</svg>
