<?xml version="1.0" encoding="UTF-8"?>
<svg width="13px" height="13px" viewBox="0 0 13 13" version="1.1" xmlns="http://www.w3.org/2000/svg" xmlns:xlink="http://www.w3.org/1999/xlink">
    <title>444302F5-0266-44D8-BE84-9987F6B7665F</title>
    <g id="Investment-Planning---Desktop" stroke="none" stroke-width="1" fill="none" fill-rule="evenodd">
        <g id="IP-5" transform="translate(-389.000000, -347.000000)" fill="#0A699B" fill-rule="nonzero">
            <g id="Group-13" transform="translate(126.000000, 325.000000)">
                <g id="Group-3">
                    <g id="Group-7">
                        <g id="Group-15" transform="translate(263.000000, 18.000000)">
                            <g id="noun_reset_1921232" transform="translate(0.000000, 4.000000)">
                                <path d="M11.4733527,5.85815891 L12.4992054,5.85815891 C12.7961628,5.85815891 12.9851357,5.53420543 12.8231589,5.27774225 L11.108905,2.51063953 C10.9604264,2.26767442 10.6094767,2.26767442 10.4609981,2.51063953 L8.73324612,5.26424419 C8.57126938,5.52070736 8.76024225,5.84466085 9.05719961,5.84466085 L10.0830523,5.84466085 C10.0830523,5.85815891 10.0830523,5.87165698 10.0830523,5.87165698 C10.0425581,8.17982558 8.12583333,10.0830523 5.81766473,10.0965504 C3.32052326,10.1235465 1.30931202,8.01784884 1.48478682,5.49371124 C1.61976744,3.41500969 3.28002907,1.70075581 5.35873062,1.49828488 C6.45207364,1.39030039 7.46442829,1.68725775 8.27431202,2.26767442 C8.46328488,2.40265504 8.71974806,2.34866279 8.84123062,2.14619186 L9.15168605,1.61976744 C9.25967054,1.44429264 9.20567829,1.21482558 9.04370155,1.09334302 C8.09883721,0.472432171 6.97849806,0.0944864341 5.77717054,0.0944864341 C2.48364341,0.0944864341 -0.161976744,2.88858527 0.0809883721,6.23610465 C0.283459302,9.03020349 2.53763566,11.2843798 5.3317345,11.4868508 C8.66575581,11.743314 11.4463566,9.12468992 11.4733527,5.85815891 Z" id="Path"></path>
                            </g>
                        </g>
                    </g>
                </g>
            </g>
        </g>
    </g>
</svg>