<svg width="20" height="20" viewBox="0 0 20 20" fill="none" xmlns="http://www.w3.org/2000/svg">
<circle cx="10" cy="10" r="10" fill="#0A699B"/>
<g clip-path="url(#clip0_23303_20184)">
<path d="M11.7347 9.18368C11.7347 8.90307 11.9643 8.67348 12.2449 8.67348C12.5255 8.67348 12.7551 8.90307 12.7551 9.18368C12.7551 9.4643 12.5255 9.69389 12.2449 9.69389C11.9643 9.69389 11.7347 9.4643 11.7347 9.18368ZM8.16328 8.67348H10.7143V7.65307H8.16328V8.67348ZM15.3061 7.90817V11.4643L13.8674 11.9439L13.0102 14.7959H10.2041V13.7755H9.18368V14.7959H6.37756C6.37756 14.7959 5.10205 10.4796 5.10205 8.92858C5.10205 7.37756 6.35715 6.12246 7.90817 6.12246H10.4592C10.9235 5.50511 11.6633 5.10205 12.5 5.10205C12.9235 5.10205 13.2653 5.44389 13.2653 5.86736C13.2653 5.9745 13.2449 6.07144 13.2041 6.16328C13.1327 6.33674 13.0714 6.53572 13.0408 6.75001L14.199 7.90817H15.3061ZM14.2857 8.92858H13.7755L11.9898 7.14287C11.9898 6.81123 12.0357 6.4847 12.1225 6.16838C11.6276 6.29593 11.2245 6.66328 11.0561 7.14287H7.90817C6.92348 7.14287 6.12246 7.94389 6.12246 8.92858C6.12246 9.88777 6.74491 12.3214 7.14797 13.7755H8.16328V12.7551H11.2245V13.7755H12.25L13.0408 11.148L14.2857 10.7296V8.92858Z" fill="white"/>
</g>
<defs>
<clipPath id="clip0_23303_20184">
<rect width="12.2449" height="12.2449" fill="white" transform="translate(4.08154 4.0816)"/>
</clipPath>
</defs>
</svg>
