<svg width="35" height="41" viewBox="0 0 35 41" fill="none" xmlns="http://www.w3.org/2000/svg">
<path d="M8.75 30.75V32.0312" stroke="#34913F" stroke-miterlimit="10"/>
<path d="M4.71191 41V33.3125" stroke="#34913F" stroke-miterlimit="10"/>
<path d="M15.4811 41V31.3906C15.4811 29.9755 14.2756 28.8281 12.7888 28.8281H4.71184C3.22501 28.8281 2.01953 29.9755 2.01953 31.3906V41" stroke="#34913F" stroke-miterlimit="10"/>
<path d="M12.7891 33.3125V41" stroke="#34913F" stroke-miterlimit="10"/>
<path d="M8.74992 26.2656C10.2368 26.2656 11.4422 25.1184 11.4422 23.7031C11.4422 22.2879 10.2368 21.1406 8.74992 21.1406C7.263 21.1406 6.05762 22.2879 6.05762 23.7031C6.05762 25.1184 7.263 26.2656 8.74992 26.2656Z" stroke="#34913F" stroke-miterlimit="10"/>
<path d="M26.25 30.75V32.0312" stroke="#34913F" stroke-miterlimit="10"/>
<path d="M22.2119 41V33.3125" stroke="#34913F" stroke-miterlimit="10"/>
<path d="M32.9811 41V31.3906C32.9811 29.9755 31.7756 28.8281 30.2888 28.8281H22.2118C20.725 28.8281 19.5195 29.9755 19.5195 31.3906V41" stroke="#34913F" stroke-miterlimit="10"/>
<path d="M30.2891 33.3125V41" stroke="#34913F" stroke-miterlimit="10"/>
<path d="M26.2499 26.2656C27.7368 26.2656 28.9422 25.1184 28.9422 23.7031C28.9422 22.2879 27.7368 21.1406 26.2499 21.1406C24.763 21.1406 23.5576 22.2879 23.5576 23.7031C23.5576 25.1184 24.763 26.2656 26.2499 26.2656Z" stroke="#34913F" stroke-miterlimit="10"/>
<path d="M14.1348 17.9375C14.1348 6.97 15.6411 0.640625 17.5002 0.640625C19.3592 0.640625 20.8655 6.97 20.8655 17.9375" stroke="#34913F" stroke-miterlimit="10"/>
<path d="M7.40332 17.9375C7.40332 6.97 11.9237 0.640625 17.4995 0.640625C23.0746 0.640625 27.5956 6.97 27.5956 17.9375" stroke="#34913F" stroke-miterlimit="10"/>
<path d="M0.672852 17.9375C0.672852 16.1687 2.1792 14.7344 4.03824 14.7344C5.89727 14.7344 7.40362 16.1687 7.40362 17.9375" stroke="#34913F" stroke-miterlimit="10"/>
<path d="M7.40332 17.9375C7.40332 16.1687 8.90967 14.7344 10.7687 14.7344C12.6277 14.7344 14.1341 16.1687 14.1341 17.9375" stroke="#34913F" stroke-miterlimit="10"/>
<path d="M14.1348 17.9375C14.1348 16.1687 15.6411 14.7344 17.5002 14.7344C19.3592 14.7344 20.8655 16.1687 20.8655 17.9375" stroke="#34913F" stroke-miterlimit="10"/>
<path d="M20.8652 17.9375C20.8652 16.1687 22.3716 14.7344 24.2306 14.7344C26.0897 14.7344 27.596 16.1687 27.596 17.9375" stroke="#34913F" stroke-miterlimit="10"/>
<path d="M27.5957 17.9375C27.5957 16.1687 29.102 14.7344 30.9611 14.7344C32.8201 14.7344 34.3265 16.1687 34.3265 17.9375" stroke="#34913F" stroke-miterlimit="10"/>
<path d="M0.672852 17.9375C0.672852 6.97 8.2066 0.640625 17.4998 0.640625C26.7929 0.640625 34.3267 6.97 34.3267 17.9375" stroke="#34913F" stroke-miterlimit="10"/>
<path d="M0.672852 19.2188V20.5" stroke="#34913F" stroke-miterlimit="10"/>
<path d="M0.672852 21.7812V23.0625" stroke="#34913F" stroke-miterlimit="10"/>
<path d="M34.3271 19.2188V20.5" stroke="#34913F" stroke-miterlimit="10"/>
<path d="M34.3271 21.7812V23.0625" stroke="#34913F" stroke-miterlimit="10"/>
</svg>
