<svg width="15" height="15" viewBox="0 0 15 15" fill="none" xmlns="http://www.w3.org/2000/svg">
<path fill-rule="evenodd" clip-rule="evenodd" d="M10.7134 5.38489C10.7134 6.71889 10.2246 7.946 9.42086 8.89057L9.64457 9.11429H10.2991L14.442 13.2571L13.1991 14.5L9.05629 10.3571V9.70257L8.83257 9.47886C7.89546 10.2826 6.66917 10.7714 5.32771 10.7714C2.378 10.7391 0 8.3404 0 5.38571C0 2.43103 2.37883 0.0331431 5.32523 2.13485e-07C8.30311 -0.000828358 10.7134 2.41031 10.7134 5.38489ZM5.33013 1.65625C3.25871 1.65625 1.60156 3.31339 1.60156 5.38482C1.60156 7.45625 3.25871 9.11339 5.33013 9.11339C7.40156 9.11339 9.05871 7.45625 9.05871 5.38482C9.05871 3.31339 7.40156 1.65625 5.33013 1.65625Z" fill="#2E8FC2"/>
</svg>
