<svg width="8" height="11" viewBox="0 0 8 11" xmlns="http://www.w3.org/2000/svg">
    <g fill-rule="evenodd">
        <path d="M3.902 7.425c-.497 0-.995.006-1.492-.003-.247-.004-.437.055-.452.334-.015.292.179.353.425.353 1.011-.003 2.023-.003 3.034 0 .245 0 .44-.059.427-.35-.013-.279-.2-.342-.45-.337-.497.01-.994.003-1.492.003m-.044-2.017c.514 0 1.028-.003 1.542 0 .239.003.448-.038.445-.333-.004-.272-.177-.355-.434-.353-1.01.007-2.022.007-3.034 0-.263-.002-.42.1-.42.367.002.26.184.32.409.32.497-.004.995-.001 1.492-.001m.033.683c-.513 0-1.027.006-1.54-.003-.239-.004-.39.075-.395.328-.005.259.163.34.388.341l3.083.001c.244 0 .433-.072.42-.36-.013-.261-.187-.313-.414-.31-.514.009-1.028.003-1.542.003m-3.89-.703C0 3.856-.001 2.325 0 .794.004.144.139.01.795.008 1.91.006 3.025.02 4.14 0c.32-.005.431.07.42.407-.027.748-.015 1.498-.007 2.247.006.58.163.731.751.736.733.005 1.465.01 2.197-.005.243-.005.306.071.305.308-.008 2.164-.005 4.328-.005 6.492 0 .439-.226.626-.655.625-2.148-.004-4.295 0-6.442-.004-.55 0-.7-.159-.702-.725C-.002 8.517.001 6.952.001 5.388"/>
        <path d="M5.2 1.348c0-.367.01-.734-.003-1.1-.01-.266.11-.281.299-.183.101.053.202.12.28.202.613.636 1.22 1.277 1.83 1.916.119.124.246.263.179.437-.071.182-.261.08-.394.083-.6.012-1.2-.018-1.8.014-.347.019-.42-.11-.396-.42.025-.314.006-.632.006-.949"/>
    </g>
</svg>