<svg width="41" height="20" viewBox="0 0 41 20" fill="none" xmlns="http://www.w3.org/2000/svg">
<path opacity="0.8" fill-rule="evenodd" clip-rule="evenodd" d="M17.596 7.59466L34.6905 3.69476L19.7802 10.8553C19.7763 10.8571 19.7729 10.8594 19.7691 10.8613C19.7587 10.8666 19.7486 10.8723 19.7385 10.8782C19.7287 10.8838 19.719 10.8895 19.7095 10.8956C19.7 10.9019 19.6908 10.9085 19.6816 10.9154C19.6723 10.9222 19.6631 10.9289 19.6542 10.9362C19.6457 10.9433 19.6374 10.9508 19.6292 10.9584C19.6205 10.9664 19.6118 10.9743 19.6036 10.9827C19.6008 10.9857 19.5976 10.9882 19.5948 10.9912L16.9784 13.783L17.596 7.59466ZM40.46 2.24359C40.4661 2.23621 40.472 2.22867 40.4776 2.22107C40.4828 2.21423 40.4877 2.20728 40.4925 2.20014C40.4983 2.19179 40.5038 2.18331 40.5091 2.17469C40.5134 2.16783 40.5175 2.16085 40.5214 2.15386C40.5265 2.14483 40.5313 2.13577 40.5359 2.12659C40.5395 2.11927 40.543 2.11193 40.5464 2.10454C40.5505 2.09544 40.5543 2.08633 40.5579 2.07708C40.5611 2.06905 40.5642 2.06099 40.567 2.05287C40.5701 2.04403 40.5728 2.03521 40.5755 2.02628C40.5782 2.01746 40.5807 2.00861 40.5829 1.99967C40.5851 1.99104 40.5869 1.98247 40.5887 1.97374C40.5906 1.96439 40.5925 1.95518 40.594 1.94576C40.5955 1.93682 40.5964 1.92784 40.5974 1.91886C40.5985 1.90974 40.5996 1.90058 40.6003 1.89139C40.601 1.88097 40.6011 1.87059 40.6013 1.86019C40.6015 1.85225 40.602 1.84449 40.6018 1.83659C40.6016 1.82153 40.6005 1.80645 40.5991 1.79141C40.5989 1.78821 40.5989 1.78513 40.5986 1.78196L40.5985 1.78109C40.5965 1.76228 40.5936 1.74361 40.5899 1.72499C40.589 1.72033 40.5876 1.71586 40.5866 1.71114C40.5836 1.69784 40.5804 1.68449 40.5766 1.67128C40.5742 1.66329 40.5713 1.65552 40.5686 1.64771C40.5654 1.63822 40.5624 1.62861 40.5587 1.61924C40.5551 1.61013 40.551 1.60128 40.547 1.59241C40.5435 1.58463 40.5402 1.57674 40.5363 1.56903C40.5315 1.55943 40.5263 1.55012 40.5209 1.54085C40.5172 1.53412 40.5136 1.52743 40.5095 1.52085C40.5036 1.51115 40.4972 1.50192 40.4907 1.49261C40.4875 1.48809 40.4848 1.48327 40.4815 1.47876C40.4804 1.47729 40.4792 1.47599 40.4781 1.47455C40.4718 1.46604 40.465 1.45794 40.4582 1.44973C40.4529 1.44334 40.4477 1.4368 40.4422 1.43066C40.4362 1.42393 40.4298 1.41763 40.4236 1.41121C40.4167 1.40426 40.4099 1.3972 40.4028 1.39053C40.3971 1.38519 40.391 1.38019 40.3851 1.37508C40.3771 1.36814 40.369 1.36118 40.3606 1.3547C40.3546 1.35007 40.3485 1.34569 40.3423 1.34131C40.3337 1.33512 40.325 1.32894 40.3161 1.32318C40.3094 1.31888 40.3024 1.31484 40.2955 1.31068C40.2869 1.30567 40.2783 1.3006 40.2695 1.2959C40.2618 1.29192 40.2539 1.28813 40.246 1.28435C40.2377 1.28042 40.2293 1.27646 40.2207 1.27284C40.2122 1.26928 40.2036 1.26599 40.195 1.26277C40.1866 1.25968 40.1781 1.2567 40.1695 1.25387C40.1607 1.2511 40.152 1.24849 40.143 1.24607C40.134 1.24355 40.1249 1.2413 40.1157 1.23924C40.1073 1.23732 40.0988 1.23555 40.0902 1.23397C40.0798 1.23213 40.0695 1.23059 40.059 1.22919C40.0515 1.22825 40.0439 1.22728 40.0363 1.22656C40.0241 1.2254 40.0118 1.22477 39.9995 1.22431C39.9949 1.22423 39.9906 1.22362 39.986 1.22359L12.9432 0.89116C12.7066 0.888236 12.4886 1.01951 12.3803 1.2301C12.272 1.44069 12.2919 1.69437 12.4319 1.88525L16.3747 7.26243L15.5546 15.4799C15.5439 15.5688 15.5523 15.661 15.5821 15.7507C15.5888 15.7708 15.5966 15.7906 15.6052 15.8099C15.6697 15.9534 15.7823 16.0613 15.9161 16.122C15.9187 16.1232 15.9214 16.1244 15.9241 16.1256C15.9529 16.1382 15.9823 16.1484 16.012 16.1565C16.13 16.1883 16.2582 16.1858 16.381 16.1425C16.3929 16.1383 16.4047 16.1338 16.4163 16.1289L21.271 14.1352L24.3615 18.3417C24.4255 18.4288 24.5102 18.4966 24.6062 18.5402C24.6751 18.5715 24.7498 18.5904 24.8271 18.5949C25.0122 18.606 25.1926 18.534 25.3196 18.3986L40.433 2.2751C40.4361 2.27177 40.4387 2.26829 40.4417 2.26499C40.4479 2.25794 40.454 2.25089 40.46 2.24359ZM8.40909 16.1699C8.36159 16.2239 8.31346 16.2765 8.26476 16.3276C7.43583 16.041 6.72949 15.524 6.346 14.6485C5.66952 13.104 6.16315 12.1678 6.8507 11.8067C7.26763 11.5877 7.80214 11.5526 8.29031 11.7743C8.60536 11.9173 8.90119 12.1675 9.13346 12.5442C9.74142 13.5298 9.45032 14.9869 8.40909 16.1699ZM13.7434 16.1706C13.7083 16.1811 11.6422 16.784 9.65815 16.6094C10.7985 15.0769 11.0234 13.2293 10.1958 11.8876C9.75935 11.1799 9.10677 10.6787 8.35848 10.4767C7.65139 10.2856 6.91009 10.3653 6.27109 10.7009C5.59411 11.0565 5.10528 11.6655 4.89467 12.4158C4.66738 13.2258 4.77379 14.1714 5.20266 15.1504C5.60057 16.0589 6.2597 16.7499 7.15538 17.2107C5.25183 18.3265 2.88368 17.9975 1.08474 17.1805C0.770936 17.0379 0.400936 17.177 0.25829 17.4911C0.11567 17.8051 0.254385 18.1753 0.568186 18.3178C4.02937 19.8898 6.85233 19.1287 8.598 17.712C9.16723 17.8332 9.7951 17.893 10.4777 17.8894C12.3741 17.8795 14.0316 17.3879 14.1012 17.367C14.4313 17.2678 14.6185 16.9199 14.5199 16.5897C14.4213 16.2596 14.0736 16.0719 13.7434 16.1706Z" fill="white"/>
</svg>
