<svg width="82" height="37" viewBox="0 0 82 37" fill="none" xmlns="http://www.w3.org/2000/svg">
<path opacity="0.8" fill-rule="evenodd" clip-rule="evenodd" d="M35.7681 13.4472L69.9591 5.64701L40.1367 19.9688C40.129 19.9725 40.1221 19.9771 40.1147 19.9809C40.0938 19.9916 40.0735 20.003 40.0533 20.0148C40.0339 20.026 40.0143 20.0373 39.9955 20.0496C39.9764 20.062 39.958 20.0753 39.9396 20.0891C39.9211 20.1026 39.9026 20.1162 39.8848 20.1308C39.8677 20.1449 39.8512 20.1599 39.8347 20.1751C39.8173 20.191 39.8001 20.207 39.7837 20.2238C39.778 20.2297 39.7715 20.2348 39.766 20.2407L34.5328 25.8246L35.7681 13.4472ZM81.4986 2.74452C81.5108 2.72975 81.5226 2.71466 81.5339 2.69948C81.5442 2.68578 81.5541 2.67188 81.5638 2.6576C81.5753 2.6409 81.5863 2.62394 81.597 2.60671C81.6054 2.59297 81.6137 2.57902 81.6216 2.56503C81.6317 2.54699 81.6413 2.52885 81.6504 2.5105C81.6578 2.49586 81.6647 2.48118 81.6714 2.46639C81.6797 2.44819 81.6873 2.42996 81.6946 2.41146C81.7009 2.39541 81.7071 2.3793 81.7127 2.36304C81.7189 2.34537 81.7244 2.32772 81.7298 2.30986C81.735 2.29222 81.7402 2.27453 81.7446 2.25664C81.7489 2.23937 81.7526 2.22224 81.7561 2.20478C81.7599 2.18608 81.7638 2.16765 81.7667 2.14882C81.7696 2.13093 81.7715 2.11298 81.7736 2.09501C81.7757 2.07676 81.778 2.05845 81.7792 2.04007C81.7808 2.01922 81.781 1.99847 81.7814 1.97766C81.7818 1.96178 81.7826 1.94626 81.7823 1.93045C81.7818 1.90034 81.7798 1.87018 81.777 1.8401C81.7765 1.83369 81.7765 1.82754 81.7758 1.82119L81.7756 1.81947C81.7716 1.78183 81.7658 1.74449 81.7585 1.70726C81.7567 1.69793 81.7539 1.68898 81.7519 1.67956C81.7459 1.65295 81.7396 1.62624 81.7319 1.59982C81.7272 1.58384 81.7214 1.5683 81.716 1.55268C81.7096 1.5337 81.7035 1.51447 81.6961 1.49575C81.6889 1.47752 81.6807 1.45982 81.6728 1.44207C81.6657 1.42652 81.659 1.41073 81.6514 1.39531C81.6417 1.37611 81.6312 1.3575 81.6206 1.33895C81.613 1.32548 81.6059 1.31211 81.5978 1.29895C81.5859 1.27955 81.573 1.26109 81.5601 1.24246C81.5538 1.23342 81.5483 1.22379 81.5417 1.21476C81.5395 1.21182 81.5371 1.20923 81.535 1.20635C81.5223 1.18933 81.5087 1.17313 81.4952 1.1567C81.4845 1.14391 81.4741 1.13083 81.4631 1.11856C81.451 1.1051 81.4384 1.09249 81.4258 1.07966C81.4121 1.06576 81.3985 1.05163 81.3843 1.0383C81.3728 1.02761 81.3608 1.01761 81.3489 1.00739C81.3328 0.993514 81.3167 0.979589 81.2999 0.966637C81.288 0.957362 81.2756 0.948603 81.2633 0.939846C81.246 0.927474 81.2287 0.915101 81.2109 0.903586C81.1974 0.894985 81.1836 0.8869 81.1698 0.878587C81.1525 0.868562 81.1354 0.858422 81.1177 0.849027C81.1023 0.841057 81.0865 0.833489 81.0707 0.825922C81.054 0.818057 81.0372 0.810139 81.0201 0.802904C81.0031 0.795772 80.986 0.78921 80.9688 0.78276C80.9518 0.77658 80.9348 0.770627 80.9178 0.764953C80.9001 0.759413 80.8826 0.754204 80.8647 0.749347C80.8467 0.744325 80.8286 0.739809 80.8101 0.735697C80.7932 0.731863 80.7764 0.728307 80.7591 0.725155C80.7383 0.721468 80.7177 0.718392 80.6967 0.715605C80.6817 0.713714 80.6665 0.711769 80.6513 0.710332C80.6268 0.708012 80.6023 0.706756 80.5776 0.705842C80.5685 0.705683 80.5598 0.70445 80.5506 0.704405L26.4621 0.0394948C25.9888 0.0336483 25.5528 0.296216 25.3362 0.717418C25.1195 1.13862 25.1594 1.64601 25.4393 2.0278L33.3255 12.7827L31.6851 29.2186C31.6638 29.3963 31.6804 29.5809 31.7402 29.7602C31.7536 29.8004 31.7691 29.84 31.7864 29.8786C31.9153 30.1657 32.1406 30.3814 32.4081 30.5029C32.4134 30.5053 32.4187 30.5077 32.4241 30.51C32.4817 30.5352 32.5405 30.5557 32.6 30.5718C32.8359 30.6354 33.0925 30.6305 33.3381 30.5438C33.3619 30.5355 33.3854 30.5264 33.4086 30.5167L43.1187 26.5291L49.3 34.9424C49.428 35.1167 49.5973 35.2522 49.7894 35.3395C49.9272 35.4021 50.0765 35.4399 50.2312 35.4489C50.6014 35.4711 50.9623 35.3271 51.2162 35.0563L81.4447 2.80754C81.4508 2.80088 81.4561 2.79392 81.4621 2.78732C81.4745 2.77321 81.4867 2.75911 81.4986 2.74452ZM17.3933 30.5987C17.2983 30.7067 17.2021 30.8119 17.1047 30.914C15.4467 30.3408 14.0339 29.3068 13.2669 27.5557C11.9139 24.4665 12.9012 22.5941 14.2764 21.8718C15.1103 21.4338 16.1794 21.3635 17.1558 21.8069C17.7859 22.0931 18.3776 22.5934 18.8422 23.3468C20.0582 25.3182 19.4759 28.2325 17.3933 30.5987ZM28.0626 30.6C27.9924 30.6211 23.8599 31.827 19.8916 31.4777C22.1724 28.4126 22.6223 24.7171 20.967 22.0336C20.094 20.6181 18.7888 19.6157 17.2921 19.2116C15.8779 18.8294 14.3952 18.9889 13.1171 19.66C11.7631 20.3713 10.7853 21.5894 10.3641 23.0901C9.90951 24.7101 10.1223 26.6015 10.9801 28.5596C11.776 30.3767 13.0943 31.7588 14.8858 32.6803C11.0785 34.9122 6.3419 34.254 2.74382 32.6199C2.11618 32.3348 1.37614 32.613 1.09083 33.2412C0.805576 33.8693 1.08302 34.6097 1.71066 34.8948C8.63341 38.0388 14.2796 36.5166 17.7712 33.683C18.9097 33.9255 20.1655 34.045 21.5309 34.0379C25.3237 34.0181 28.639 33.0347 28.7782 32.993C29.4384 32.7946 29.8129 32.0988 29.6157 31.4383C29.4184 30.7781 28.723 30.4027 28.0626 30.6Z" fill="#0A699B"/>
</svg>
