<svg width="14" height="11" viewBox="-.5 0 14 11" xmlns="http://www.w3.org/2000/svg">
    <g fill-rule="evenodd">
        <path d="M5.934 5.393a1.486 1.486 0 00-1.422-1.545c-.865-.032-1.49.546-1.524 1.408-.035.908.583 1.609 1.434 1.628.861.02 1.484-.595 1.512-1.491M1.347 2.179c.035.01.138.008.19.058.666.65 1.082-.143 1.604-.287.184-.051.104-.293.109-.452.021-.662.114-.768.78-.833.18-.018.365-.024.547-.019.947.027 1.131.15 1.078.998-.011.186.039.307.243.372.17.053.343.148.473.27.292.27.55.265.865.028.337-.253.64-.181.893.173.241.34.487.672.666 1.05.193.408.13.728-.311.883-.417.147-.563.4-.468.827.031.142.02.302-.01.447-.05.253.044.381.272.498.739.379.787.558.382 1.272a5.548 5.548 0 01-.386.582c-.464.62-.539.642-1.214.257-.201-.115-.35-.14-.528.027a1.014 1.014 0 01-.373.243c-.415.128-.562.379-.513.813.043.39-.173.626-.58.655-.248.017-.497.05-.745.042-1.008-.028-1.14-.247-1.068-1.018.017-.175-.051-.28-.21-.348-.136-.06-.284-.113-.393-.208-.354-.311-.684-.382-1.08-.046-.236.2-.502.112-.701-.125a5.251 5.251 0 01-.742-1.12c-.223-.472-.162-.702.318-.917.373-.168.457-.386.464-.792C.918 4.952.888 4.504.262 4.33a.251.251 0 01-.118-.088c-.106-.135-.183-.29-.123-.462.202-.573.543-1.062.954-1.504.087-.094.206-.097.372-.097M11.619 8.546c.01-.466-.27-.764-.717-.765-.407 0-.725.3-.745.707-.021.435.287.788.702.805.406.017.751-.323.76-.747m.01 2.215c-.105-.012-.177-.068-.248-.145-.344-.373-.635-.376-.976 0-.271.297-.492.052-.696-.07-.189-.113-.479-.196-.328-.558.172-.412-.019-.76-.456-.84-.434-.08-.318-.406-.328-.663-.011-.259-.03-.536.368-.581.36-.041.592-.453.438-.77-.195-.4.115-.504.344-.635.221-.126.457-.38.705.023.182.296.674.276.892-.03.222-.313.429-.153.636-.025.225.138.554.21.422.613-.144.438.022.744.462.829.386.075.335.367.333.62-.002.247.069.544-.328.617-.43.08-.6.41-.473.834.085.287-.404.785-.768.78M10.946 1.48a.733.733 0 00-.789.712c-.02.438.289.786.706.798a.755.755 0 00.755-.703c.03-.466-.236-.785-.672-.806m1.51-.843c-.218.269-.167.53.035.796.061.082.096.185.211.173.475-.047.503.267.501.608-.001.328-.006.597-.473.657a.494.494 0 00-.367.709c.194.416-.081.545-.332.695-.26.155-.521.309-.744-.1-.121-.222-.672-.205-.807.024-.243.412-.504.204-.752.056-.232-.138-.52-.257-.316-.648.152-.293-.084-.717-.424-.752-.463-.05-.393-.376-.394-.662-.001-.277-.034-.575.408-.593.31-.012.557-.475.409-.757C9.204.45 9.5.328 9.733.198c.22-.123.46-.38.715.009.192.294.665.277.891-.007.128-.16.24-.263.456-.138.253.146.56.222.661.576"/>
    </g>
</svg>