<svg width="60" height="60" viewBox="0 0 60 60" fill="none" xmlns="http://www.w3.org/2000/svg">
<path d="M57.625 17.25H19.375C18.8114 17.25 18.2709 17.4739 17.8724 17.8724C17.4739 18.2709 17.25 18.8114 17.25 19.375V57.625C17.25 58.1886 17.4739 58.7291 17.8724 59.1276C18.2709 59.5261 18.8114 59.75 19.375 59.75H57.625C58.1886 59.75 58.7291 59.5261 59.1276 59.1276C59.5261 58.7291 59.75 58.1886 59.75 57.625V19.375C59.75 18.8114 59.5261 18.2709 59.1276 17.8724C58.7291 17.4739 58.1886 17.25 57.625 17.25ZM55.5 55.5H21.5V21.5H55.5V55.5Z" fill="#2E8FC2"/>
<path d="M55.5 10.875C55.5 10.3114 55.2761 9.77091 54.8776 9.3724C54.4791 8.97388 53.9386 8.75 53.375 8.75H10.875C10.3114 8.75 9.77091 8.97388 9.3724 9.3724C8.97388 9.77091 8.75 10.3114 8.75 10.875V44.875C8.75 45.4386 8.97388 45.9791 9.3724 46.3776C9.77091 46.7761 10.3114 47 10.875 47C11.4386 47 11.9791 46.7761 12.3776 46.3776C12.7761 45.9791 13 45.4386 13 44.875V13H53.375C53.9386 13 54.4791 12.7761 54.8776 12.3776C55.2761 11.9791 55.5 11.4386 55.5 10.875Z" fill="#2E8FC2"/>
<path d="M46.8091 2.375C46.8091 1.81141 46.5852 1.27091 46.1867 0.872398C45.7882 0.473883 45.2477 0.25 44.6841 0.25H2.18408C1.6205 0.25 1.08 0.473883 0.68148 0.872398C0.282965 1.27091 0.059082 1.81141 0.059082 2.375V36.375C0.059082 36.9386 0.282965 37.4791 0.68148 37.8776C1.08 38.2761 1.6205 38.5 2.18408 38.5C2.74767 38.5 3.28817 38.2761 3.68668 37.8776C4.0852 37.4791 4.30908 36.9386 4.30908 36.375V4.5H44.6841C45.2477 4.5 45.7882 4.27612 46.1867 3.8776C46.5852 3.47909 46.8091 2.93859 46.8091 2.375Z" fill="#2E8FC2"/>
</svg>
