<svg viewBox="0 0 13 13" xmlns="http://www.w3.org/2000/svg">
    <g fill-rule="evenodd">
        <circle cx="6.5" cy="6.5" r="6.5"/>
        <path fill="currentColor" d="M7.085 7.68c0-.24.062-.447.185-.62s.312-.373.565-.6c.207-.187.373-.352.5-.495.127-.143.235-.318.325-.525a1.79 1.79 0 00.135-.72c0-.567-.222-1.012-.665-1.335-.443-.323-1.038-.485-1.785-.485-.613 0-1.147.105-1.6.315a2.81 2.81 0 00-1.11.905l.97.63c.367-.513.91-.77 1.63-.77.38 0 .683.087.91.26.227.173.34.4.34.68 0 .2-.058.378-.175.535a3.953 3.953 0 01-.535.555c-.313.28-.552.538-.715.775-.163.237-.245.535-.245.895h1.27zm-.63 2.39a.766.766 0 00.79-.78.738.738 0 00-.225-.55.775.775 0 00-.565-.22.788.788 0 00-.575.22.738.738 0 00-.225.55c0 .22.075.405.225.555.15.15.342.225.575.225z"/>
    </g>
</svg>