<svg width="10" height="11" viewBox="0 0 10 11" fill="none" xmlns="http://www.w3.org/2000/svg">
<g id="Group 17">
<g id="Group 5">
<mask id="mask0_12598:5815" style="mask-type:alpha" maskUnits="userSpaceOnUse" x="0" y="2" width="9" height="9">
<path id="Clip 4" fill-rule="evenodd" clip-rule="evenodd" d="M0.681641 2.69593H8.9328V10.8067H0.681641V2.69593Z" fill="white"/>
</mask>
<g mask="url(#mask0_12598:5815)">
<path id="Fill 3" fill-rule="evenodd" clip-rule="evenodd" d="M7.20772 6.80531C7.20772 6.07271 7.20392 5.34031 7.20992 4.60771C7.21192 4.34091 7.19852 4.06731 6.85652 4.07131C6.54612 4.07491 6.52392 4.33611 6.52412 4.58431C6.52572 6.03271 6.52632 7.48111 6.52352 8.92931C6.52312 9.17891 6.54452 9.43571 6.85592 9.43871C7.19932 9.44211 7.21192 9.16951 7.20972 8.90291C7.20392 8.20371 7.20772 7.50451 7.20772 6.80531ZM2.40812 6.72371C2.40812 7.47291 2.41152 8.22211 2.40612 8.97111C2.40432 9.21091 2.45052 9.42511 2.72912 9.43691C3.04552 9.45071 3.09232 9.21811 3.09192 8.96091C3.08972 7.49591 3.09012 6.03091 3.09172 4.56611C3.09192 4.31331 3.05412 4.06471 2.74192 4.07131C2.43552 4.07751 2.40352 4.32191 2.40572 4.57611C2.41212 5.29191 2.40812 6.00791 2.40812 6.72371ZM4.45812 6.75751C4.45812 7.50451 4.45872 8.25151 4.45772 8.99891C4.45752 9.24091 4.51852 9.43451 4.81032 9.43311C5.10372 9.43151 5.15772 9.23411 5.15752 8.99371C5.15672 7.51631 5.15792 6.03851 5.15652 4.56091C5.15632 4.31691 5.13652 4.07191 4.80552 4.07391C4.47412 4.07591 4.45992 4.32351 4.45932 4.56591C4.45732 5.29651 4.45852 6.02691 4.45812 6.75751ZM4.81912 2.70451C6.00192 2.70451 7.18512 2.72071 8.36732 2.69631C8.81352 2.68691 8.93632 2.85051 8.93272 3.27871C8.91532 5.36091 8.92752 7.44351 8.92352 9.52591C8.92192 10.4255 8.54452 10.8019 7.64532 10.8037C5.74632 10.8075 3.84712 10.8081 1.94812 10.8033C1.08032 10.8013 0.69472 10.4187 0.69272 9.55351C0.68752 7.45451 0.70292 5.35531 0.68172 3.25651C0.67732 2.79791 0.85452 2.69091 1.27072 2.69771C2.45332 2.71731 3.63632 2.70451 4.81912 2.70451Z" fill="#C93333"/>
</g>
</g>
<path id="Fill 22" fill-rule="evenodd" clip-rule="evenodd" d="M4.80847 2.02171C3.40907 2.02171 2.00947 2.01611 0.61007 2.02551C0.25967 2.02771 -0.00973042 2.02031 0.00026958 1.54231C0.0136696 0.902913 0.12247 0.704313 0.63467 0.691913C1.26747 0.676313 1.90087 0.679313 2.53387 0.692113C2.78587 0.697113 2.97927 0.675713 3.08087 0.392913C3.19007 0.0903133 3.44007 -0.00628671 3.75967 0.000313286C4.45927 0.0145133 5.15927 0.0145133 5.85887 0.000313286C6.17867 -0.00628671 6.42827 0.0913133 6.53707 0.393513C6.63887 0.676713 6.83327 0.697113 7.08467 0.691913C7.70087 0.679313 8.31747 0.688313 8.93407 0.687713C9.17547 0.687313 9.42147 0.710113 9.53247 0.957913C9.66567 1.25551 9.66047 1.58091 9.54627 1.87991C9.46327 2.09771 9.22987 2.01831 9.05687 2.01891C7.64087 2.02371 6.22467 2.02171 4.80847 2.02171Z" fill="#C93333"/>
</g>
</svg>
