<svg width="12" height="11" viewBox="0 0 12 11" xmlns="http://www.w3.org/2000/svg">
    <g fill-rule="evenodd">
        <path d="M5.142 10.797C2.41 10.79.182 8.69.012 6.118-.167 3.458 1.735 1.062 4.302.711 4.928.625 5 .686 5 1.306c0 1.35.009 2.698-.007 4.047-.003.292.089.49.294.692.96.947 1.904 1.91 2.852 2.87.386.39.372.458-.068.808a4.902 4.902 0 01-2.93 1.074"/>
        <path transform="translate(5.975)"
              d="M2.482 5.082c-.717 0-1.433-.009-2.15.005-.237.005-.314-.064-.313-.307.01-1.45.014-2.899 0-4.348C.015.007.243-.02.566.017a5.072 5.072 0 014.355 4.031c.202 1.02.19 1.034-.84 1.034h-1.6"/>
        <path d="M6.787 6.08h2.887c.566 0 1.131.005 1.697-.001.289-.003.429.093.389.414-.13 1.046-.475 1.997-1.154 2.817-.157.19-.3.32-.528.112-.073-.067-.142-.14-.212-.211-.997-1.014-1.994-2.028-3.08-3.13"/>
    </g>
</svg>