<svg width="19" height="19" viewBox="0 0 19 19" fill="none" xmlns="http://www.w3.org/2000/svg">
<g id="Group 5">
<g id="Group">
<circle id="Oval" opacity="0.154064" cx="9.5" cy="9.5" r="9.5" fill="currentColor"/>
</g>
<path id="!" fill-rule="evenodd" clip-rule="evenodd" d="M10.622 5.60001L10.25 11.084H8.762L8.39 5.60001H10.622ZM10.328 13.778C10.108 13.99 9.834 14.096 9.506 14.096C9.178 14.096 8.904 13.99 8.684 13.778C8.464 13.566 8.354 13.308 8.354 13.004C8.354 12.7 8.462 12.446 8.678 12.242C8.894 12.038 9.17 11.936 9.506 11.936C9.842 11.936 10.118 12.038 10.334 12.242C10.55 12.446 10.658 12.7 10.658 13.004C10.658 13.308 10.548 13.566 10.328 13.778Z" fill="currentColor"/>
</g>
</svg>
